{
  "accessors": [
    {
      "bufferView": 2,
      "componentType": 5126,
      "count": 65532,
      "max": [
        7.8562941551208496,
        4.152341365814209,
        19.438596725463867
      ],
      "min": [
        -16.178878784179688,
        -14.893035888671875,
        0.71808242797851562
      ],
      "type": "VEC3"
    },
    {
      "bufferView": 2,
      "byteOffset": 786384,
      "componentType": 5126,
      "count": 65532,
      "max": [
        0.99954390525817871,
        0.99935394525527954,
        0.98994803428649902
      ],
      "min": [
        -0.99990987777709961,
        -1,
        -0.99999892711639404
      ],
      "type": "VEC3"
    },
    {
      "bufferView": 3,
      "componentType": 5126,
      "count": 65532,
      "max": [
        1,
        0.99993079900741577,
        1,
        -1
      ],
      "min": [
        -1,
        -0.99998831748962402,
        -0.99999064207077026,
        -1
      ],
      "type": "VEC4"
    },
    {
      "bufferView": 1,
      "componentType": 5126,
      "count": 65532,
      "max": [
        0.99929898977279663,
        0.86535602807998657
      ],
      "min": [
        0.00024399999529123306,
        0.00024399999529123306
      ],
      "type": "VEC2"
    },
    {
      "bufferView": 0,
      "componentType": 5125,
      "count": 306600,
      "max": [
        65531
      ],
      "min": [
        0
      ],
      "type": "SCALAR"
    },
    {
      "bufferView": 2,
      "byteOffset": 1572768,
      "componentType": 5126,
      "count": 65532,
      "max": [
        15.468932151794434,
        4.5846095085144043,
        19.459999084472656
      ],
      "min": [
        -16.178878784179688,
        -14.058540344238281,
        4.4753704071044922
      ],
      "type": "VEC3"
    },
    {
      "bufferView": 2,
      "byteOffset": 2359152,
      "componentType": 5126,
      "count": 65532,
      "max": [
        0.9999995231628418,
        0.99998384714126587,
        0.99996733665466309
      ],
      "min": [
        -0.99999767541885376,
        -0.99999845027923584,
        -0.99843406677246094
      ],
      "type": "VEC3"
    },
    {
      "bufferView": 3,
      "byteOffset": 1048512,
      "componentType": 5126,
      "count": 65532,
      "max": [
        1,
        0.99998915195465088,
        1,
        1
      ],
      "min": [
        -0.99999982118606567,
        -0.99977213144302368,
        -1,
        -1
      ],
      "type": "VEC4"
    },
    {
      "bufferView": 1,
      "byteOffset": 524256,
      "componentType": 5126,
      "count": 65532,
      "max": [
        0.99974900484085083,
        0.954833984375
      ],
      "min": [
        0.00024399999529123306,
        0.00024799999664537609
      ],
      "type": "VEC2"
    },
    {
      "bufferView": 0,
      "byteOffset": 1226400,
      "componentType": 5125,
      "count": 299631,
      "max": [
        65531
      ],
      "min": [
        0
      ],
      "type": "SCALAR"
    },
    {
      "bufferView": 2,
      "byteOffset": 3145536,
      "componentType": 5126,
      "count": 65532,
      "max": [
        15.471301078796387,
        6.0866713523864746,
        19.08564567565918
      ],
      "min": [
        -8.6789951324462891,
        -14.911025047302246,
        2.0185337066650391
      ],
      "type": "VEC3"
    },
    {
      "bufferView": 2,
      "byteOffset": 3931920,
      "componentType": 5126,
      "count": 65532,
      "max": [
        0.99999785423278809,
        0.99999690055847168,
        0.99998044967651367
      ],
      "min": [
        -0.9999280571937561,
        -0.99999457597732544,
        -0.99418812990188599
      ],
      "type": "VEC3"
    },
    {
      "bufferView": 3,
      "byteOffset": 2097024,
      "componentType": 5126,
      "count": 65532,
      "max": [
        1,
        0.99990594387054443,
        0.99999988079071045,
        -1
      ],
      "min": [
        -1,
        -0.97465115785598755,
        -1,
        -1
      ],
      "type": "VEC4"
    },
    {
      "bufferView": 1,
      "byteOffset": 1048512,
      "componentType": 5126,
      "count": 65532,
      "max": [
        0.99955302476882935,
        0.95451200008392334
      ],
      "min": [
        0.0053059998899698257,
        0.0002460000105202198
      ],
      "type": "VEC2"
    },
    {
      "bufferView": 0,
      "byteOffset": 2424924,
      "componentType": 5125,
      "count": 310380,
      "max": [
        65531
      ],
      "min": [
        0
      ],
      "type": "SCALAR"
    },
    {
      "bufferView": 2,
      "byteOffset": 4718304,
      "componentType": 5126,
      "count": 65533,
      "max": [
        7.3018074035644531,
        6.0890402793884277,
        20.496707916259766
      ],
      "min": [
        -8.7116203308105469,
        -10.328751564025879,
        2.4494857788085938
      ],
      "type": "VEC3"
    },
    {
      "bufferView": 2,
      "byteOffset": 5504700,
      "componentType": 5126,
      "count": 65533,
      "max": [
        0.99831849336624146,
        0.99999988079071045,
        0.99999868869781494
      ],
      "min": [
        -0.99922162294387817,
        -0.96966260671615601,
        -0.99538534879684448
      ],
      "type": "VEC3"
    },
    {
      "bufferView": 3,
      "byteOffset": 3145536,
      "componentType": 5126,
      "count": 65533,
      "max": [
        1,
        0.99742281436920166,
        0.99999988079071045,
        1
      ],
      "min": [
        -1,
        -0.99918603897094727,
        -0.99954694509506226,
        -1
      ],
      "type": "VEC4"
    },
    {
      "bufferView": 1,
      "byteOffset": 1572768,
      "componentType": 5126,
      "count": 65533,
      "max": [
        0.99965602159500122,
        0.93823200464248657
      ],
      "min": [
        0.00024399999529123306,
        0.00024399999529123306
      ],
      "type": "VEC2"
    },
    {
      "bufferView": 0,
      "byteOffset": 3666444,
      "componentType": 5125,
      "count": 317310,
      "max": [
        65532
      ],
      "min": [
        0
      ],
      "type": "SCALAR"
    },
    {
      "bufferView": 2,
      "byteOffset": 6291096,
      "componentType": 5126,
      "count": 65532,
      "max": [
        10.305350303649902,
        5.8366942405700684,
        19.556453704833984
      ],
      "min": [
        -10.487326622009277,
        -14.926539421081543,
        1.9115371704101562
      ],
      "type": "VEC3"
    },
    {
      "bufferView": 2,
      "byteOffset": 7077480,
      "componentType": 5126,
      "count": 65532,
      "max": [
        0.99999415874481201,
        0.99898546934127808,
        0.99995905160903931
      ],
      "min": [
        -0.99999958276748657,
        -0.99997186660766602,
        -0.99723488092422485
      ],
      "type": "VEC3"
    },
    {
      "bufferView": 3,
      "byteOffset": 4194064,
      "componentType": 5126,
      "count": 65532,
      "max": [
        0.99999994039535522,
        0.99986249208450317,
        1,
        -1
      ],
      "min": [
        -0.99999785423278809,
        -0.9909014105796814,
        -1,
        -1
      ],
      "type": "VEC4"
    },
    {
      "bufferView": 1,
      "byteOffset": 2097032,
      "componentType": 5126,
      "count": 65532,
      "max": [
        0.99974799156188965,
        0.93628698587417603
      ],
      "min": [
        0.00024399999529123306,
        0.00024699998903088272
      ],
      "type": "VEC2"
    },
    {
      "bufferView": 0,
      "byteOffset": 4935684,
      "componentType": 5125,
      "count": 291669,
      "max": [
        65531
      ],
      "min": [
        0
      ],
      "type": "SCALAR"
    },
    {
      "bufferView": 2,
      "byteOffset": 7863864,
      "componentType": 5126,
      "count": 65532,
      "max": [
        10.112680435180664,
        5.7427783012390137,
        20.31304931640625
      ],
      "min": [
        -10.436829566955566,
        -14.729860305786133,
        0.67724609375
      ],
      "type": "VEC3"
    },
    {
      "bufferView": 2,
      "byteOffset": 8650248,
      "componentType": 5126,
      "count": 65532,
      "max": [
        0.99999862909317017,
        0.99999630451202393,
        0.99999719858169556
      ],
      "min": [
        -0.99998360872268677,
        -0.99982678890228271,
        -0.99999994039535522
      ],
      "type": "VEC3"
    },
    {
      "bufferView": 3,
      "byteOffset": 5242576,
      "componentType": 5126,
      "count": 65532,
      "max": [
        1,
        0.99761921167373657,
        1,
        1
      ],
      "min": [
        -1,
        -0.99971932172775269,
        -1,
        -1
      ],
      "type": "VEC4"
    },
    {
      "bufferView": 1,
      "byteOffset": 2621288,
      "componentType": 5126,
      "count": 65532,
      "max": [
        0.99975401163101196,
        0.96557599306106567
      ],
      "min": [
        0.00024799999664537609,
        0.00024799999664537609
      ],
      "type": "VEC2"
    },
    {
      "bufferView": 0,
      "byteOffset": 6102360,
      "componentType": 5125,
      "count": 304698,
      "max": [
        65531
      ],
      "min": [
        0
      ],
      "type": "SCALAR"
    },
    {
      "bufferView": 2,
      "byteOffset": 9436632,
      "componentType": 5126,
      "count": 65532,
      "max": [
        15.135350227355957,
        5.7698798179626465,
        20.449459075927734
      ],
      "min": [
        -10.167634963989258,
        -14.835836410522461,
        0.61300086975097656
      ],
      "type": "VEC3"
    },
    {
      "bufferView": 2,
      "byteOffset": 10223016,
      "componentType": 5126,
      "count": 65532,
      "max": [
        0.99989855289459229,
        0.99999630451202393,
        0.99999946355819702
      ],
      "min": [
        -0.99993646144866943,
        -0.99928313493728638,
        -0.9999997615814209
      ],
      "type": "VEC3"
    },
    {
      "bufferView": 3,
      "byteOffset": 6291088,
      "componentType": 5126,
      "count": 65532,
      "max": [
        1,
        0.99962425231933594,
        1,
        -1
      ],
      "min": [
        -1,
        -0.99933409690856934,
        -1,
        -1
      ],
      "type": "VEC4"
    },
    {
      "bufferView": 1,
      "byteOffset": 3145544,
      "componentType": 5126,
      "count": 65532,
      "max": [
        0.99975401163101196,
        0.97241199016571045
      ],
      "min": [
        0.00024399999529123306,
        0.00025899999309331179
      ],
      "type": "VEC2"
    },
    {
      "bufferView": 0,
      "byteOffset": 7321152,
      "componentType": 5125,
      "count": 298665,
      "max": [
        65531
      ],
      "min": [
        0
      ],
      "type": "SCALAR"
    },
    {
      "bufferView": 2,
      "byteOffset": 11009400,
      "componentType": 5126,
      "count": 65532,
      "max": [
        15.084183692932129,
        5.758521556854248,
        19.961221694946289
      ],
      "min": [
        -2.8280086517333984,
        -14.926539421081543,
        0.61300086975097656
      ],
      "type": "VEC3"
    },
    {
      "bufferView": 2,
      "byteOffset": 11795784,
      "componentType": 5126,
      "count": 65532,
      "max": [
        0.99999940395355225,
        0.99994784593582153,
        0.99993783235549927
      ],
      "min": [
        -0.99902832508087158,
        -0.99999994039535522,
        -0.99999582767486572
      ],
      "type": "VEC3"
    },
    {
      "bufferView": 3,
      "byteOffset": 7339600,
      "componentType": 5126,
      "count": 65532,
      "max": [
        1,
        0.99999892711639404,
        0.99992388486862183,
        -1
      ],
      "min": [
        -1,
        -0.99924081563949585,
        -1,
        -1
      ],
      "type": "VEC4"
    },
    {
      "bufferView": 1,
      "byteOffset": 3669800,
      "componentType": 5126,
      "count": 65532,
      "max": [
        0.99963998794555664,
        0.986083984375
      ],
      "min": [
        0.00024399999529123306,
        0.0002460000105202198
      ],
      "type": "VEC2"
    },
    {
      "bufferView": 0,
      "byteOffset": 8515812,
      "componentType": 5125,
      "count": 261870,
      "max": [
        65531
      ],
      "min": [
        0
      ],
      "type": "SCALAR"
    },
    {
      "bufferView": 2,
      "byteOffset": 12582168,
      "componentType": 5126,
      "count": 65532,
      "max": [
        14.045225143432617,
        6.0478911399841309,
        20.181316375732422
      ],
      "min": [
        -10.301918983459473,
        -13.977537155151367,
        0.71954727172851562
      ],
      "type": "VEC3"
    },
    {
      "bufferView": 2,
      "byteOffset": 13368552,
      "componentType": 5126,
      "count": 65532,
      "max": [
        0.9998781681060791,
        0.99999469518661499,
        0.9999958872795105
      ],
      "min": [
        -0.99999767541885376,
        -0.99922740459442139,
        -0.99999988079071045
      ],
      "type": "VEC3"
    },
    {
      "bufferView": 3,
      "byteOffset": 8388112,
      "componentType": 5126,
      "count": 65532,
      "max": [
        1,
        0.99978893995285034,
        1,
        1
      ],
      "min": [
        -1,
        -0.97529745101928711,
        -0.99999994039535522,
        -1
      ],
      "type": "VEC4"
    },
    {
      "bufferView": 1,
      "byteOffset": 4194056,
      "componentType": 5126,
      "count": 65532,
      "max": [
        0.99969398975372314,
        0.95959901809692383
      ],
      "min": [
        0.00024399999529123306,
        0.00025400001322850585
      ],
      "type": "VEC2"
    },
    {
      "bufferView": 0,
      "byteOffset": 9563292,
      "componentType": 5125,
      "count": 263223,
      "max": [
        65531
      ],
      "min": [
        0
      ],
      "type": "SCALAR"
    },
    {
      "bufferView": 2,
      "byteOffset": 14154936,
      "componentType": 5126,
      "count": 65532,
      "max": [
        15.27591609954834,
        5.9563937187194824,
        24.033000946044922
      ],
      "min": [
        -10.436577796936035,
        -13.868830680847168,
        1.0446853637695312
      ],
      "type": "VEC3"
    },
    {
      "bufferView": 2,
      "byteOffset": 14941320,
      "componentType": 5126,
      "count": 65532,
      "max": [
        0.99993139505386353,
        0.99995326995849609,
        0.99999988079071045
      ],
      "min": [
        -0.99998265504837036,
        -0.99993801116943359,
        -0.99999910593032837
      ],
      "type": "VEC3"
    },
    {
      "bufferView": 3,
      "byteOffset": 9436624,
      "componentType": 5126,
      "count": 65532,
      "max": [
        1,
        0.99999642372131348,
        1,
        -1
      ],
      "min": [
        -1,
        -0.99973446130752563,
        -0.99999982118606567,
        -1
      ],
      "type": "VEC4"
    },
    {
      "bufferView": 1,
      "byteOffset": 4718312,
      "componentType": 5126,
      "count": 65532,
      "max": [
        0.99952900409698486,
        0.9847869873046875
      ],
      "min": [
        0.00024399999529123306,
        0.00024500000290572643
      ],
      "type": "VEC2"
    },
    {
      "bufferView": 0,
      "byteOffset": 10616184,
      "componentType": 5125,
      "count": 276315,
      "max": [
        65531
      ],
      "min": [
        0
      ],
      "type": "SCALAR"
    },
    {
      "bufferView": 2,
      "byteOffset": 15727704,
      "componentType": 5126,
      "count": 16702,
      "max": [
        -4.8421854972839355,
        -2.8265442848205566,
        18.745563507080078
      ],
      "min": [
        -10.486610412597656,
        -10.299847602844238,
        6.5755348205566406
      ],
      "type": "VEC3"
    },
    {
      "bufferView": 2,
      "byteOffset": 15928128,
      "componentType": 5126,
      "count": 16702,
      "max": [
        0.95987784862518311,
        0.96889132261276245,
        0.99999475479125977
      ],
      "min": [
        -0.99999958276748657,
        -0.99154388904571533,
        -0.9911155104637146
      ],
      "type": "VEC3"
    },
    {
      "bufferView": 3,
      "byteOffset": 10485136,
      "componentType": 5126,
      "count": 16702,
      "max": [
        0.99999880790710449,
        0.40051800012588501,
        1,
        -1
      ],
      "min": [
        -0.99944466352462769,
        -0.97703307867050171,
        -0.99926990270614624,
        -1
      ],
      "type": "VEC4"
    },
    {
      "bufferView": 1,
      "byteOffset": 5242568,
      "componentType": 5126,
      "count": 16702,
      "max": [
        0.99964499473571777,
        0.95284199714660645
      ],
      "min": [
        0.046142999082803726,
        0.0022470001131296158
      ],
      "type": "VEC2"
    },
    {
      "bufferView": 0,
      "byteOffset": 11721444,
      "componentType": 5125,
      "count": 69075,
      "max": [
        16701
      ],
      "min": [
        0
      ],
      "type": "SCALAR"
    }
  ],
  "asset": {
    "extras": {
      "author": "Museovirasto – Finnish Heritage Agency (https://sketchfab.com/Museovirasto)",
      "license": "CC-BY-4.0 (http://creativecommons.org/licenses/by/4.0/)",
      "source": "https://sketchfab.com/3d-models/teekannu-teapot-smm3757-smm87730-2fe3157d92bd451e975e171e9a780a00",
      "title": "Teekannu, Teapot (SMM375:7 / SMM877:30)"
    },
    "generator": "Sketchfab-6.93.1",
    "version": "2.0"
  },
  "bufferViews": [
    {
      "buffer": 0,
      "byteLength": 11997744,
      "byteOffset": 0,
      "name": "floatBufferViews",
      "target": 34963
    },
    {
      "buffer": 0,
      "byteLength": 5376184,
      "byteOffset": 11997744,
      "byteStride": 8,
      "name": "floatBufferViews",
      "target": 34962
    },
    {
      "buffer": 0,
      "byteLength": 16128552,
      "byteOffset": 17373928,
      "byteStride": 12,
      "name": "floatBufferViews",
      "target": 34962
    },
    {
      "buffer": 0,
      "byteLength": 10752368,
      "byteOffset": 33502480,
      "byteStride": 16,
      "name": "floatBufferViews",
      "target": 34962
    }
  ],
  "buffers": [
    {
      "byteLength": 44254848,
      "uri": "teapot.bin"
    }
  ],
  "extensionsUsed": [
    "KHR_materials_unlit"
  ],
  "images": [
    {
      "uri": "textures/model_Material_u1_v1_baseColor.jpeg"
    }
  ],
  "materials": [
    {
      "doubleSided": true,
      "emissiveFactor": [
        0,
        0,
        0
      ],
      "extensions": {
        "KHR_materials_unlit": {}
      },
      "name": "model_Material_u1_v1",
      "pbrMetallicRoughness": {
        "baseColorFactor": [
          1,
          1,
          1,
          1
        ],
        "baseColorTexture": {
          "index": 0,
          "texCoord": 0
        },
        "metallicFactor": 0,
        "roughnessFactor": 1
      }
    }
  ],
  "meshes": [
    {
      "primitives": [
        {
          "attributes": {
            "NORMAL": 1,
            "POSITION": 0,
            "TANGENT": 2,
            "TEXCOORD_0": 3
          },
          "indices": 4,
          "material": 0,
          "mode": 4
        }
      ]
    },
    {
      "primitives": [
        {
          "attributes": {
            "NORMAL": 6,
            "POSITION": 5,
            "TANGENT": 7,
            "TEXCOORD_0": 8
          },
          "indices": 9,
          "material": 0,
          "mode": 4
        }
      ]
    },
    {
      "primitives": [
        {
          "attributes": {
            "NORMAL": 11,
            "POSITION": 10,
            "TANGENT": 12,
            "TEXCOORD_0": 13
          },
          "indices": 14,
          "material": 0,
          "mode": 4
        }
      ]
    },
    {
      "primitives": [
        {
          "attributes": {
            "NORMAL": 16,
            "POSITION": 15,
            "TANGENT": 17,
            "TEXCOORD_0": 18
          },
          "indices": 19,
          "material": 0,
          "mode": 4
        }
      ]
    },
    {
      "primitives": [
        {
          "attributes": {
            "NORMAL": 21,
            "POSITION": 20,
            "TANGENT": 22,
            "TEXCOORD_0": 23
          },
          "indices": 24,
          "material": 0,
          "mode": 4
        }
      ]
    },
    {
      "primitives": [
        {
          "attributes": {
            "NORMAL": 26,
            "POSITION": 25,
            "TANGENT": 27,
            "TEXCOORD_0": 28
          },
          "indices": 29,
          "material": 0,
          "mode": 4
        }
      ]
    },
    {
      "primitives": [
        {
          "attributes": {
            "NORMAL": 31,
            "POSITION": 30,
            "TANGENT": 32,
            "TEXCOORD_0": 33
          },
          "indices": 34,
          "material": 0,
          "mode": 4
        }
      ]
    },
    {
      "primitives": [
        {
          "attributes": {
            "NORMAL": 36,
            "POSITION": 35,
            "TANGENT": 37,
            "TEXCOORD_0": 38
          },
          "indices": 39,
          "material": 0,
          "mode": 4
        }
      ]
    },
    {
      "primitives": [
        {
          "attributes": {
            "NORMAL": 41,
            "POSITION": 40,
            "TANGENT": 42,
            "TEXCOORD_0": 43
          },
          "indices": 44,
          "material": 0,
          "mode": 4
        }
      ]
    },
    {
      "primitives": [
        {
          "attributes": {
            "NORMAL": 46,
            "POSITION": 45,
            "TANGENT": 47,
            "TEXCOORD_0": 48
          },
          "indices": 49,
          "material": 0,
          "mode": 4
        }
      ]
    },
    {
      "primitives": [
        {
          "attributes": {
            "NORMAL": 51,
            "POSITION": 50,
            "TANGENT": 52,
            "TEXCOORD_0": 53
          },
          "indices": 54,
          "material": 0,
          "mode": 4
        }
      ]
    }
  ],
  "nodes": [
    {
      "children": [
        1
      ],
      "name": "RootNode (gltf orientation matrix)",
      "rotation": [
        -0.70710678118654746,
        -0,
        -0,
        0.70710678118654757
      ]
    },
    {
      "children": [
        2
      ],
      "matrix": [
        0.99965298175811768,
        0,
        0.026341861113905907,
        0,
        0,
        1,
        0,
        0,
        -0.026341861113905907,
        0,
        0.99965298175811768,
        0,
        0.32448804378509521,
        0,
        0.013596315868198872,
        1
      ],
      "name": "RootNode (model correction matrix)"
    },
    {
      "children": [
        3,
        4,
        5,
        6,
        7,
        8,
        9,
        10,
        11,
        12,
        13
      ],
      "name": "model.obj.cleaner.materialmerger.gles"
    },
    {
      "mesh": 0,
      "name": ""
    },
    {
      "mesh": 1,
      "name": ""
    },
    {
      "mesh": 2,
      "name": ""
    },
    {
      "mesh": 3,
      "name": ""
    },
    {
      "mesh": 4,
      "name": ""
    },
    {
      "mesh": 5,
      "name": ""
    },
    {
      "mesh": 6,
      "name": ""
    },
    {
      "mesh": 7,
      "name": ""
    },
    {
      "mesh": 8,
      "name": ""
    },
    {
      "mesh": 9,
      "name": ""
    },
    {
      "mesh": 10,
      "name": ""
    }
  ],
  "samplers": [
    {
      "magFilter": 9729,
      "minFilter": 9987,
      "wrapS": 10497,
      "wrapT": 10497
    }
  ],
  "scene": 0,
  "scenes": [
    {
      "name": "OSG_Scene",
      "nodes": [
        0
      ]
    }
  ],
  "textures": [
    {
      "sampler": 0,
      "source": 0
    }
  ]
}

