{
  "accessors": [
    {
      "bufferView": 2,
      "componentType": 5126,
      "count": 62217,
      "max": [
        0.97761398553848267,
        -8.5670242309570312,
        1.0163689851760864
      ],
      "min": [
        -1.1435990333557129,
        -10.522329330444336,
        -0.93321800231933594
      ],
      "type": "VEC3"
    },
    {
      "bufferView": 2,
      "byteOffset": 746604,
      "componentType": 5126,
      "count": 62217,
      "max": [
        0.99997693300247192,
        0.99999439716339111,
        0.99991375207901001
      ],
      "min": [
        -0.99986124038696289,
        -0.99998903274536133,
        -0.99997901916503906
      ],
      "type": "VEC3"
    },
    {
      "bufferView": 1,
      "componentType": 5126,
      "count": 62217,
      "max": [
        0.99471598863601685,
        0.99883198738098145
      ],
      "min": [
        0.003599999938160181,
        0.0029770000837743282
      ],
      "type": "VEC2"
    },
    {
      "bufferView": 0,
      "componentType": 5125,
      "count": 348378,
      "max": [
        62216
      ],
      "min": [
        0
      ],
      "type": "SCALAR"
    }
  ],
  "asset": {
    "extras": {
      "author": "The Royal Museums of Art and History (https://sketchfab.com/kmkg-mrah)",
      "license": "CC-BY-NC-SA-4.0 (http://creativecommons.org/licenses/by-nc-sa/4.0/)",
      "source": "https://sketchfab.com/3d-models/globular-vase-with-expanding-rim-pg2000124-213260ce96bb424fb702c5c69bd08141",
      "title": "Globular vase with expanding rim - PG.2000.124"
    },
    "generator": "Sketchfab-8.7.0",
    "version": "2.0"
  },
  "bufferViews": [
    {
      "buffer": 0,
      "byteLength": 1393512,
      "byteOffset": 0,
      "name": "floatBufferViews",
      "target": 34963
    },
    {
      "buffer": 0,
      "byteLength": 497736,
      "byteOffset": 1393512,
      "byteStride": 8,
      "name": "floatBufferViews",
      "target": 34962
    },
    {
      "buffer": 0,
      "byteLength": 1493208,
      "byteOffset": 1891248,
      "byteStride": 12,
      "name": "floatBufferViews",
      "target": 34962
    }
  ],
  "buffers": [
    {
      "byteLength": 3384456,
      "uri": "vase.bin"
    }
  ],
  "images": [
    {
      "uri": "textures/3D_Model_baseColor.jpeg"
    }
  ],
  "materials": [
    {
      "doubleSided": true,
      "emissiveFactor": [
        0,
        0,
        0
      ],
      "name": "3D_Model",
      "pbrMetallicRoughness": {
        "baseColorFactor": [
          1,
          1,
          1,
          1
        ],
        "baseColorTexture": {
          "index": 0,
          "texCoord": 0
        },
        "metallicFactor": 0,
        "roughnessFactor": 1
      }
    }
  ],
  "meshes": [
    {
      "primitives": [
        {
          "attributes": {
            "NORMAL": 1,
            "POSITION": 0,
            "TEXCOORD_0": 2
          },
          "indices": 3,
          "material": 0,
          "mode": 4
        }
      ]
    }
  ],
  "nodes": [
    {
      "children": [
        1
      ],
      "name": "RootNode (gltf orientation matrix)",
      "rotation": [
        -0.70710678118654746,
        -0,
        -0,
        0.70710678118654757
      ]
    },
    {
      "children": [
        2
      ],
      "matrix": [
        -0.45596966147422791,
        0.32677307724952698,
        -0.82783514261245728,
        0,
        -0.14374125003814697,
        0.89090627431869507,
        0.4308415949344635,
        0,
        0.87831097841262817,
        0.31544476747512817,
        -0.35925543308258057,
        0,
        -1.529310941696167,
        -1.0272562503814697,
        4.1000385284423828,
        1
      ],
      "name": "RootNode (model correction matrix)"
    },
    {
      "children": [
        3
      ],
      "name": "3D Model.obj.cleaner.materialmerger.gles"
    },
    {
      "mesh": 0,
      "name": ""
    }
  ],
  "samplers": [
    {
      "magFilter": 9729,
      "minFilter": 9987,
      "wrapS": 10497,
      "wrapT": 10497
    }
  ],
  "scene": 0,
  "scenes": [
    {
      "name": "OSG_Scene",
      "nodes": [
        0
      ]
    }
  ],
  "textures": [
    {
      "sampler": 0,
      "source": 0
    }
  ]
}

